
            <svg width="3160.202466665664" height="2695.9512116702454" xmlns="http://www.w3.org/2000/svg" xmlns:xlink="http://www.w3.org/1999/xlink" version="1.1">
                <g transform="scale(8.010123333283197) translate(10, 10)">
                    <g id="SvgjsG4463" rel="mainfill" name="main_text" xmlns:name="mainText_mainfill" transform="translate(98.61503799723587,175.2459797859192)" fill="#f07631"><path fill="#f07631" d="M2.576 39.647999999999996 q-0.056 1.848 -0.028 2.968 t0.056 1.792 t0.084 1.036 t0.14 0.756 t0.196 0.924 t0.28 1.484 q0.168 1.456 0.504 2.912 t1.568 2.576 q0.392 0.336 0.868 0.588 t1.092 0.308 q0.672 0.056 1.204 -0.28 t0.924 -0.784 q0.84 -0.952 1.176 -1.82 t0.504 -1.988 q0.056 -0.448 0.448 -0.7 t0.84 -0.14 q0.504 0.056 0.812 0.392 t0.252 0.784 q-0.224 1.456 -0.532 2.632 t-1.54 2.184 q-1.512 1.176 -3.136 1.4 t-3.052 -0.308 t-2.436 -1.68 t-1.288 -2.716 q-0.28 -1.4 -0.42 -2.24 t-0.252 -1.568 t-0.196 -1.512 t-0.196 -2.072 q-0.168 -1.904 -0.252 -4.032 t-0.112 -4.312 t-0.028 -4.34 t0.112 -4.004 q0.112 -1.96 0.364 -4.284 t1.036 -4.172 q0.952 -2.072 3.024 -3.248 q0.952 -0.504 2.016 -0.728 t2.184 0 q2.016 0.448 3.192 2.016 q0.728 0.952 1.008 2.044 t0.392 2.212 q0 0.448 -0.336 0.756 t-0.84 0.308 t-0.84 -0.28 t-0.392 -0.728 q0 -0.56 -0.14 -1.232 t-0.448 -1.316 t-0.812 -1.092 t-1.232 -0.616 q-0.616 -0.112 -1.26 0.028 t-1.204 0.42 q-1.344 0.784 -2.072 2.296 q-0.672 1.512 -0.924 2.324 t-0.28 1.484 t0 1.54 t-0.028 2.436 q-0.168 2.912 -0.056 5.796 t0.056 5.796 z M28.951999999999998 16.912 q0.896 1.232 1.428 3.164 t0.784 4.2 t0.308 4.704 t0 4.676 t-0.168 4.116 t-0.112 2.996 q0 1.344 -0.168 3.388 t-0.56 4.144 t-1.064 3.976 t-1.68 2.94 q-1.288 1.344 -2.8 1.484 t-2.912 -0.476 t-2.464 -1.848 t-1.456 -2.688 q-0.224 -0.784 -0.308 -1.596 t-0.196 -1.596 q-0.112 -1.12 -0.196 -2.156 t-0.196 -2.156 q-0.112 -1.232 -0.14 -2.464 t-0.084 -2.52 l0 -5.88 t0.168 -5.88 q0.112 -1.232 0.196 -2.436 t0.308 -2.38 q0.168 -0.952 0.42 -1.904 t0.644 -1.848 q0.448 -0.952 1.204 -1.792 t1.764 -1.4 q1.904 -1.064 3.948 -0.784 t3.332 2.016 z M28.896 40.488 q0 -0.672 0.112 -2.212 t0.224 -3.612 t0.112 -4.424 t-0.168 -4.62 t-0.616 -4.228 t-1.232 -3.248 q-0.672 -1.064 -1.596 -1.26 t-1.82 0.168 t-1.652 1.12 t-1.092 1.484 q-0.336 0.784 -0.56 1.652 t-0.336 1.652 q-0.224 1.176 -0.308 2.324 t-0.196 2.324 q-0.112 2.016 -0.28 5.18 t-0.196 6.608 t0.168 6.664 t0.812 5.348 q0.224 0.896 0.868 1.624 t1.484 1.064 t1.764 0.14 t1.764 -1.204 q0.896 -1.064 1.428 -2.856 t0.812 -3.668 t0.392 -3.556 t0.112 -2.464 z M50.064 53.592 q0.28 0.056 0.42 0.336 t0.112 0.616 t-0.168 0.644 t-0.476 0.42 q-0.168 0.112 -0.56 0.14 t-0.812 0.056 t-0.812 0.056 t-0.616 0.084 q-0.336 0 -1.232 0.056 t-1.512 -0.224 q-0.336 -0.112 -0.476 -0.448 t-0.112 -0.672 t0.28 -0.588 t0.756 -0.252 q0.56 0.056 1.12 0 l0.056 0 q-0.224 -0.448 -0.448 -0.98 t-0.504 -1.148 t-0.728 -1.708 t-0.952 -2.352 t-1.036 -2.576 t-0.952 -2.408 t-0.7 -1.792 t-0.28 -0.756 q0 -0.112 -0.224 -0.448 l-0.364 0 t-0.42 -0.056 l0 1.288 t-0.028 0.812 t-0.028 0.784 l0 1.148 q0.056 2.688 0.14 5.124 t0.14 5.068 q0.504 0.112 1.064 0 q0.504 0 0.728 0.252 t0.252 0.588 t-0.14 0.672 t-0.504 0.448 q-0.616 0.28 -1.54 0.224 t-1.204 -0.056 q-0.224 -0.056 -0.616 -0.084 t-0.812 -0.056 t-0.812 -0.056 t-0.56 -0.14 q-0.28 -0.112 -0.42 -0.42 t-0.14 -0.644 t0.168 -0.616 t0.448 -0.336 q0.728 -0.168 1.68 -0.056 q-0.168 -2.52 -0.168 -4.872 l0 -4.928 q0 -1.12 -0.056 -2.268 t-0.056 -2.38 t0.14 -2.576 t0.084 -2.744 q-0.056 -1.96 -0.112 -3.892 t-0.112 -3.556 l0 -1.456 q0 -2.184 -0.056 -3.92 t0.112 -3.192 q-0.448 -0.056 -0.868 -0.084 t-0.644 -0.14 q-0.28 -0.112 -0.42 -0.448 t-0.14 -0.672 t0.168 -0.616 t0.448 -0.28 q1.792 -0.056 3.668 -0.056 t3.584 0.28 t3.052 0.896 t2.128 1.792 q0.672 1.12 1.036 2.828 t0.392 3.752 t-0.308 4.172 t-0.952 4.004 t-1.54 3.332 t-2.1 2.128 q-0.504 0.28 -1.036 0.476 t-1.092 0.308 q0.56 1.176 1.316 2.884 t1.456 3.388 t1.26 3.08 t0.84 1.96 q0.336 0.784 0.588 1.512 t0.42 1.288 l0.112 0 q0.84 -0.112 1.68 0.056 z M40.544 37.8 q0.392 -0.168 0.728 -0.056 q1.064 -0.056 2.072 -0.672 q1.008 -0.56 1.764 -1.848 t1.232 -2.968 t0.672 -3.584 t0.112 -3.696 t-0.448 -3.36 t-0.98 -2.52 q-0.448 -0.672 -1.176 -0.98 t-1.568 -0.42 t-1.68 -0.056 t-1.512 0.056 q-0.112 1.512 -0.056 3.36 t0 3.528 q-0.056 0.784 0 2.072 t0.056 2.072 q-0.056 1.176 -0.14 2.604 t-0.14 2.604 l0 3.808 q0.28 0.056 0.532 0.056 l0.532 0 z M58.855999999999995 28.728 q-0.056 1.176 -0.14 2.604 t-0.14 2.604 q0 2.464 -0.056 4.928 t-0.056 4.76 q0.056 2.688 0.14 5.124 t0.14 5.068 q0.504 0.112 1.064 0 q0.504 0 0.728 0.252 t0.252 0.588 t-0.14 0.672 t-0.504 0.448 q-0.616 0.28 -1.54 0.224 t-1.204 -0.112 q-0.224 0 -0.616 -0.028 t-0.812 -0.056 t-0.812 -0.056 t-0.56 -0.14 q-0.28 -0.112 -0.42 -0.42 t-0.14 -0.644 t0.168 -0.616 t0.448 -0.336 q0.784 -0.168 1.68 -0.056 q-0.168 -2.52 -0.168 -4.872 l0 -4.928 q0 -1.12 -0.056 -2.268 t-0.056 -2.38 t0.14 -2.576 t0.084 -2.744 q-0.056 -1.96 -0.112 -3.892 t-0.112 -3.556 l0 -1.456 q-0.056 -2.184 -0.084 -3.92 t0.14 -3.192 q-0.448 -0.056 -0.868 -0.084 t-0.644 -0.14 q-0.28 -0.112 -0.42 -0.42 t-0.14 -0.644 t0.168 -0.616 t0.448 -0.336 q0.952 -0.168 2.24 -0.056 t2.072 0.224 q0.112 0 0.42 0.84 t0.644 2.1 t0.756 2.828 t0.756 2.996 t0.616 2.604 t0.448 1.68 q0.336 1.176 0.644 2.604 t0.644 2.604 q0.336 1.232 0.672 2.66 t0.672 2.912 t0.672 2.884 t0.672 2.576 l0.168 0.84 t0.196 1.176 t0.168 1.148 t0.196 0.812 q-0.112 -2.968 0 -5.74 t0.168 -5.684 q0.056 -2.52 0.112 -4.956 t0 -4.732 q-0.056 -2.688 -0.14 -5.152 t-0.14 -5.096 l-1.064 0 q-0.504 0.056 -0.728 -0.196 t-0.252 -0.616 t0.14 -0.7 t0.504 -0.448 q0.616 -0.28 1.54 -0.224 t1.26 0.112 q0.224 0 0.616 0.028 t0.812 0.056 t0.784 0.084 t0.532 0.112 q0.336 0.168 0.476 0.476 t0.112 0.644 t-0.196 0.588 t-0.448 0.308 q-0.784 0.168 -1.624 0.056 q0.112 2.52 0.112 4.9 l0 4.956 q0 1.12 0.056 2.268 t0.056 2.324 q0 1.288 -0.14 2.604 t-0.084 2.772 q0.056 1.96 0.112 3.892 t0.112 3.556 l0 1.456 q0.056 2.128 0.084 3.892 t-0.14 3.22 q0.448 0.056 0.868 0.084 t0.644 0.14 q0.616 0.28 0.588 1.064 t-0.644 0.896 l-0.56 0 t-1.064 -0.028 t-1.26 -0.084 t-1.036 -0.112 q-0.28 0 -0.672 -1.064 t-0.84 -2.688 t-0.924 -3.556 t-0.896 -3.78 t-0.784 -3.332 t-0.532 -2.156 q-0.336 -1.232 -0.616 -2.576 t-0.728 -2.744 q-0.448 -1.344 -0.756 -2.94 t-0.616 -3.248 t-0.616 -3.248 t-0.7 -2.94 l0 1.484 t0.028 2.268 t0.028 2.212 l0 1.372 z M91.27999999999999 28.672 q0 1.176 -0.112 2.604 t-0.112 2.604 q-0.056 2.464 -0.112 4.9 t0 4.788 q0 1.232 -0.028 2.94 t-0.28 3.388 t-0.84 3.136 t-1.764 2.184 q-1.624 1.008 -3.192 1.092 t-2.856 -0.448 t-2.24 -1.652 t-1.344 -2.576 q-0.224 -0.896 -0.448 -2.212 t-0.336 -2.268 q0 -2.016 -0.056 -4.06 t-0.056 -4.06 q0 -1.232 0.14 -2.576 t0.084 -2.8 q-0.056 -1.96 -0.112 -3.864 t-0.112 -3.528 l0 -1.456 q0 -2.184 -0.056 -3.948 t0.112 -3.22 q-0.448 0 -0.868 -0.028 t-0.644 -0.14 q-0.28 -0.168 -0.42 -0.476 t-0.14 -0.644 t0.168 -0.588 t0.448 -0.308 q0.728 -0.112 1.372 -0.084 t1.26 0.112 l1.232 0.168 t1.288 0.028 q0.504 -0.056 0.728 0.196 t0.252 0.616 t-0.14 0.7 t-0.504 0.448 q-0.28 0.112 -0.616 0.168 t-0.672 0.056 q-0.112 1.512 -0.056 3.248 t-0.056 3.416 q0 0.784 0.056 2.072 t0.056 2.072 q-0.056 1.176 -0.14 2.604 t-0.14 2.604 q-0.056 3.304 -0.084 6.552 t0.084 6.608 q0.112 1.176 0.196 2.324 t0.364 1.988 q0.28 1.232 1.316 2.128 t2.268 0.784 q1.568 -0.056 2.464 -1.372 t1.344 -3.024 t0.56 -3.472 t0.112 -2.716 q0 -1.12 -0.084 -2.268 t-0.028 -2.38 q0 -1.232 0.112 -2.576 t0.056 -2.8 q-0.056 -1.96 -0.112 -3.864 t-0.056 -3.528 l-0.056 -1.456 q0 -2.184 -0.056 -3.948 t0.112 -3.22 q-0.448 0 -0.868 -0.028 t-0.588 -0.14 q-0.336 -0.168 -0.476 -0.476 t-0.112 -0.644 t0.168 -0.588 t0.42 -0.308 q0.728 -0.112 1.372 -0.084 t1.26 0.112 t1.26 0.168 t1.316 0.028 q0.504 -0.056 0.728 0.196 t0.224 0.616 t-0.168 0.7 t-0.504 0.448 q-0.28 0.112 -0.616 0.168 t-0.672 0.056 q-0.112 1.512 -0.056 3.248 t0 3.416 q-0.056 0.784 0.028 2.072 t0.028 2.072 z M99.23199999999999 39.647999999999996 q-0.056 1.848 -0.028 2.968 t0.056 1.792 t0.084 1.036 t0.14 0.756 t0.196 0.924 t0.28 1.484 q0.168 1.456 0.504 2.912 t1.568 2.576 q0.392 0.336 0.868 0.588 t1.092 0.308 q0.672 0.056 1.204 -0.28 t0.924 -0.784 q0.84 -0.952 1.176 -1.82 t0.504 -1.988 q0.056 -0.448 0.448 -0.7 t0.84 -0.14 q0.504 0.056 0.812 0.392 t0.252 0.784 q-0.224 1.456 -0.532 2.632 t-1.54 2.184 q-1.512 1.176 -3.136 1.4 t-3.052 -0.308 t-2.436 -1.68 t-1.288 -2.716 q-0.28 -1.4 -0.42 -2.24 t-0.252 -1.568 t-0.196 -1.512 t-0.196 -2.072 q-0.168 -1.904 -0.252 -4.032 t-0.112 -4.312 t-0.028 -4.34 t0.112 -4.004 q0.112 -1.96 0.364 -4.284 t1.036 -4.172 q0.952 -2.072 3.024 -3.248 q0.952 -0.504 2.016 -0.728 t2.184 0 q2.016 0.448 3.192 2.016 q0.728 0.952 1.008 2.044 t0.392 2.212 q0 0.448 -0.336 0.756 t-0.84 0.308 t-0.84 -0.28 t-0.392 -0.728 q0 -0.56 -0.14 -1.232 t-0.448 -1.316 t-0.812 -1.092 t-1.232 -0.616 q-0.616 -0.112 -1.26 0.028 t-1.204 0.42 q-1.344 0.784 -2.072 2.296 q-0.672 1.512 -0.924 2.324 t-0.28 1.484 t0 1.54 t-0.028 2.436 q-0.168 2.912 -0.056 5.796 t0.056 5.796 z M125.60799999999998 16.912 q0.896 1.232 1.428 3.164 t0.784 4.2 t0.308 4.704 t0 4.676 t-0.168 4.116 t-0.112 2.996 q0 1.344 -0.168 3.388 t-0.56 4.144 t-1.064 3.976 t-1.68 2.94 q-1.288 1.344 -2.8 1.484 t-2.912 -0.476 t-2.464 -1.848 t-1.456 -2.688 q-0.224 -0.784 -0.308 -1.596 t-0.196 -1.596 q-0.112 -1.12 -0.196 -2.156 t-0.196 -2.156 q-0.112 -1.232 -0.14 -2.464 t-0.084 -2.52 l0 -5.88 t0.168 -5.88 q0.112 -1.232 0.196 -2.436 t0.308 -2.38 q0.168 -0.952 0.42 -1.904 t0.644 -1.848 q0.448 -0.952 1.204 -1.792 t1.764 -1.4 q1.904 -1.064 3.948 -0.784 t3.332 2.016 z M125.55199999999998 40.488 q0 -0.672 0.112 -2.212 t0.224 -3.612 t0.112 -4.424 t-0.168 -4.62 t-0.616 -4.228 t-1.232 -3.248 q-0.672 -1.064 -1.596 -1.26 t-1.82 0.168 t-1.652 1.12 t-1.092 1.484 q-0.336 0.784 -0.56 1.652 t-0.336 1.652 q-0.224 1.176 -0.308 2.324 t-0.196 2.324 q-0.112 2.016 -0.28 5.18 t-0.196 6.608 t0.168 6.664 t0.812 5.348 q0.224 0.896 0.868 1.624 t1.484 1.064 t1.764 0.14 t1.764 -1.204 q0.896 -1.064 1.428 -2.856 t0.812 -3.668 t0.392 -3.556 t0.112 -2.464 z M144.59199999999998 18.424 q0.728 1.12 1.064 2.828 t0.364 3.752 t-0.308 4.172 t-0.952 4.004 t-1.54 3.332 t-2.1 2.128 t-2.464 0.868 t-2.632 0.084 l0 1.288 t-0.028 0.812 t-0.028 0.784 l0 1.148 q0.056 2.688 0.14 5.124 t0.14 5.068 q0.504 0.112 1.064 0 q0.504 0 0.728 0.252 t0.252 0.588 t-0.14 0.672 t-0.504 0.448 q-0.616 0.28 -1.512 0.224 t-1.288 -0.056 q-0.224 -0.056 -0.588 -0.084 t-0.784 -0.056 t-0.784 -0.056 t-0.532 -0.14 q-0.336 -0.112 -0.476 -0.42 t-0.14 -0.644 t0.168 -0.616 t0.448 -0.336 q0.728 -0.168 1.68 -0.056 q-0.112 -2.52 -0.14 -4.872 t-0.028 -4.928 q0 -1.12 -0.056 -2.268 t-0.056 -2.38 q0.056 -1.232 0.168 -2.576 t0.056 -2.744 q-0.056 -1.96 -0.112 -3.892 t-0.112 -3.556 l0 -1.456 q0 -2.184 -0.056 -3.92 t0.112 -3.192 q-0.448 -0.056 -0.868 -0.084 t-0.588 -0.14 q-0.336 -0.112 -0.476 -0.448 t-0.14 -0.672 t0.168 -0.616 t0.448 -0.28 q1.792 -0.056 3.668 -0.056 t3.584 0.28 t3.052 0.896 t2.128 1.792 z M139.944 37.072 q1.008 -0.56 1.764 -1.848 t1.232 -2.968 t0.672 -3.584 t0.112 -3.696 t-0.448 -3.36 t-0.98 -2.52 q-0.448 -0.672 -1.176 -0.98 t-1.568 -0.42 t-1.68 -0.056 t-1.512 0.056 q-0.112 1.512 -0.056 3.36 t0 3.528 q-0.056 0.784 0 2.072 t0.056 2.072 q-0.056 1.176 -0.14 2.604 t-0.084 2.604 q0 0.168 -0.028 0.728 t-0.028 1.176 l0 1.176 l0 0.728 q2.128 0.28 3.864 -0.672 z M151.76 53.536 q-0.168 -2.52 -0.168 -4.872 l0 -4.928 q0 -1.12 -0.056 -2.268 t-0.056 -2.38 t0.14 -2.576 t0.084 -2.744 q-0.056 -1.96 -0.112 -3.892 t-0.112 -3.556 l0 -1.456 q-0.056 -2.184 -0.084 -3.92 t0.14 -3.192 q-0.448 -0.056 -0.868 -0.084 t-0.644 -0.14 q-0.28 -0.112 -0.42 -0.42 t-0.14 -0.644 t0.168 -0.616 t0.448 -0.336 q0.728 -0.112 1.372 -0.084 t1.26 0.112 l1.232 0.168 t1.288 0.028 q0.504 0 0.728 0.252 t0.252 0.588 t-0.14 0.672 t-0.504 0.448 q-0.448 0.224 -1.344 0.224 q-0.112 1.512 -0.028 3.248 t0.028 3.416 q-0.056 0.784 0 2.072 t0.056 2.072 q-0.056 1.176 -0.14 2.604 t-0.14 2.604 q0 2.464 -0.056 4.928 t-0.056 4.76 q0.056 2.688 0.14 5.124 t0.14 5.068 q0.504 0.112 1.064 0 q0.504 0 0.728 0.252 t0.252 0.588 t-0.14 0.672 t-0.504 0.448 q-0.616 0.28 -1.54 0.224 t-1.26 -0.112 q-0.448 -0.056 -1.4 -0.084 t-1.344 -0.196 q-0.28 -0.112 -0.42 -0.42 t-0.14 -0.644 t0.168 -0.616 t0.448 -0.336 q0.728 -0.168 1.68 -0.056 z  M176.56799999999998 53.592 q0.616 0.112 0.644 0.924 t-0.588 1.092 q-0.392 0.112 -1.344 0.168 t-1.4 0.112 q-0.336 0.056 -1.26 0.112 t-1.54 -0.224 q-0.336 -0.112 -0.504 -0.448 t-0.14 -0.7 t0.252 -0.616 t0.728 -0.196 q0.448 0.056 0.868 0 t0.868 -0.112 q-0.392 -2.632 -0.672 -5.124 t-0.672 -5.18 q0 -0.224 -0.028 -0.448 t-0.084 -0.504 q-1.008 0.056 -2.408 0.084 t-3.136 0.028 q-0.112 0.728 -0.168 1.4 t-0.168 1.288 q-0.112 0.392 -0.14 0.756 t-0.084 0.756 q-0.28 2.128 -0.504 3.864 t-0.616 3.192 l0.952 0 q0.504 -0.056 0.728 0.196 t0.252 0.616 t-0.14 0.7 t-0.504 0.448 q-0.616 0.28 -1.54 0.224 t-1.26 -0.112 q-0.448 -0.056 -1.4 -0.112 t-1.344 -0.168 q-0.616 -0.28 -0.588 -1.092 t0.644 -0.924 q0.84 -0.168 1.456 -0.112 q0.336 -1.568 0.588 -3.36 t0.532 -3.528 q0.112 -0.784 0.28 -2.1 t0.28 -2.1 q0.224 -1.176 0.532 -2.576 t0.532 -2.576 q0.448 -2.464 0.868 -4.928 t0.756 -4.76 q0.392 -2.688 0.672 -5.152 t0.672 -5.096 q-0.28 -0.952 0.196 -1.4 t1.092 -0.448 q0.448 0 0.672 0.224 q0.392 0.224 0.56 0.784 q0.504 1.456 0.756 3.36 t0.588 4.368 q0.112 0.392 0.14 0.756 t0.084 0.7 q0.224 1.624 0.448 3.584 t0.504 3.92 q0.168 1.456 0.504 2.772 t0.56 2.548 q0.168 1.232 0.28 2.408 t0.28 2.296 q0.448 2.688 0.812 5.152 t0.644 5.152 l0.504 0 t0.504 0.112 z M166.376 40.656 q1.456 0.056 2.772 0.084 t2.268 0.084 q-0.28 -1.792 -0.588 -3.556 t-0.644 -3.556 q-0.56 -3.36 -0.784 -6.16 t-0.672 -5.992 q-0.056 0.28 -0.084 1.176 t-0.084 1.932 t-0.084 1.932 t-0.084 1.176 q-0.168 1.12 -0.28 2.296 t-0.336 2.352 q-0.224 1.288 -0.532 2.604 t-0.476 2.772 q-0.112 0.728 -0.196 1.456 t-0.196 1.4 z" style="fill: #f07631;"/></g><g id="SvgjsG4464" rel="mainfill" name="slogan_text" xmlns:name="sloganText_mainfill" transform="translate(99.73713256137572,236.7059826850891)" fill="#f07631"><path fill="#f07631" d="M1.224 18 c-0.16799 0 -0.252 -0.084006 -0.252 -0.252 l0 -12.06 c0 -0.16799 0.084006 -0.252 0.252 -0.252 l5.724 0 c0.084006 0 0.162 0.009 0.234 0.027 s0.14999 0.068994 0.234 0.153 l1.008 1.008 c0.095994 0.108 0.153 0.20101 0.171 0.279 s0.027 0.14099 0.027 0.189 l0 4.626 c0 0.18 -0.066006 0.33601 -0.198 0.468 l-1.008 1.008 c-0.059994 0.059994 -0.126 0.108 -0.198 0.144 s-0.162 0.054 -0.27 0.054 l-3.816 0 l0 4.356 c0 0.16799 -0.084006 0.252 -0.252 0.252 l-1.656 0 z M6.408 10.872 c0.023994 -0.023994 0.036 -0.048006 0.036 -0.072 l0 -2.772 c0 -0.036 -0.012006 -0.066006 -0.036 -0.09 l-0.324 -0.306 c-0.023994 -0.023994 -0.054 -0.036 -0.09 -0.036 l-2.862 0 l0 3.618 l2.862 0 c0.048006 0 0.084006 -0.012006 0.108 -0.036 z M11.168099999999999 18 c-0.16799 0 -0.252 -0.084006 -0.252 -0.252 l0 -12.096 c0 -0.059994 0.027 -0.11099 0.081 -0.15298 s0.11101 -0.063 0.171 -0.063 l1.656 0 c0.059994 0 0.117 0.021006 0.171 0.063 s0.081 0.092988 0.081 0.15298 l0 10.188 l5.31 0 c0.16799 0 0.252 0.084006 0.252 0.252 l0 1.656 c0 0.16799 -0.084006 0.252 -0.252 0.252 l-7.218 0 z M20.806199999999997 18 c-0.16799 0 -0.252 -0.084006 -0.252 -0.252 l0 -12.06 c0 -0.16799 0.084006 -0.252 0.252 -0.252 l6.534 0 c0.16799 0 0.252 0.084006 0.252 0.252 l0 1.656 c0 0.059994 -0.023994 0.117 -0.072 0.171 s-0.108 0.081 -0.18 0.081 l-4.626 0 l0 3.042 l3.654 0 c0.059994 0 0.117 0.023994 0.171 0.072 s0.081 0.108 0.081 0.18 l0 1.656 c0 0.072 -0.027 0.13199 -0.081 0.18 s-0.11101 0.072 -0.171 0.072 l-3.654 0 l0 3.042 l4.626 0 c0.16799 0 0.252 0.084006 0.252 0.252 l0 1.656 c0 0.16799 -0.084006 0.252 -0.252 0.252 l-6.534 0 z M35.268299999999996 18 c-0.072 0 -0.14099 -0.027 -0.207 -0.081 s-0.11101 -0.11101 -0.135 -0.171 l-3.15 -7.776 l0 7.776 c0 0.16799 -0.084006 0.252 -0.252 0.252 l-1.656 0 c-0.16799 0 -0.252 -0.084006 -0.252 -0.252 l0 -12.06 c0 -0.16799 0.084006 -0.252 0.252 -0.252 l2.196 0 c0.12001 0 0.21001 0.084006 0.27 0.252 l2.79 7.218 l0.108 0.504 l0 -7.722 c0 -0.16799 0.084006 -0.252 0.252 -0.252 l1.656 0 c0.16799 0 0.252 0.084006 0.252 0.252 l0 12.06 c0 0.16799 -0.084006 0.252 -0.252 0.252 l-1.872 0 z M42.29639999999999 18 c-0.059994 0 -0.11101 -0.021024 -0.153 -0.063018 s-0.063 -0.092988 -0.063 -0.15298 l0 -10.188 l-2.52 0 c-0.16799 0 -0.252 -0.084006 -0.252 -0.252 l0 -1.656 c0 -0.16799 0.084006 -0.252 0.252 -0.252 l7.218 0 c0.059994 0 0.117 0.023994 0.171 0.072 s0.081 0.108 0.081 0.18 l0 1.656 c0 0.072 -0.027 0.13199 -0.081 0.18 s-0.11101 0.072 -0.171 0.072 l-2.538 0 l0 10.188 c0 0.144 -0.066006 0.216 -0.198 0.216 l-1.746 0 z M49.19849999999999 18 c-0.16799 0 -0.252 -0.084006 -0.252 -0.252 l0 -12.06 c0 -0.16799 0.084006 -0.252 0.252 -0.252 l1.656 0 c0.16799 0 0.252 0.084006 0.252 0.252 l0 12.06 c0 0.16799 -0.084006 0.252 -0.252 0.252 l-1.656 0 z M53.88659999999999 18 c-0.16799 0 -0.252 -0.084006 -0.252 -0.252 l0 -12.06 c0 -0.16799 0.084006 -0.252 0.252 -0.252 l6.534 0 c0.16799 0 0.252 0.084006 0.252 0.252 l0 1.656 c0 0.048006 -0.018 0.10201 -0.054 0.162 s-0.084006 0.09 -0.144 0.09 l-4.68 0 l0 3.042 l3.672 0 c0.16799 0 0.252 0.084006 0.252 0.252 l0 1.656 c0 0.16799 -0.084006 0.252 -0.252 0.252 l-3.672 0 l0 4.95 c0 0.16799 -0.084006 0.252 -0.252 0.252 l-1.656 0 z M69.41069999999999 17.82 c-0.059994 0.059994 -0.13198 0.10499 -0.21598 0.135 s-0.16801 0.045 -0.25202 0.045 l-4.644 0 c-0.072 0 -0.153 -0.014994 -0.243 -0.045 s-0.16501 -0.075006 -0.225 -0.135 l-1.026 -1.026 c-0.095994 -0.095994 -0.14999 -0.18 -0.162 -0.252 s-0.018 -0.144 -0.018 -0.216 l0 -10.638 c0 -0.16799 0.084006 -0.252 0.252 -0.252 l1.656 0 c0.16799 0 0.252 0.084006 0.252 0.252 l0 9.774 c0 0.048006 0.018 0.09 0.054 0.126 l0.252 0.252 l3.06 0 l0.252 -0.252 c0.036 -0.036 0.054 -0.077994 0.054 -0.126 l0 -9.774 c0 -0.16799 0.084006 -0.252 0.252 -0.252 l1.656 0 c0.059994 0 0.117 0.023994 0.171 0.072 s0.081 0.108 0.081 0.18 l0 10.638 c0 0.059994 -0.014994 0.135 -0.045 0.225 s-0.081 0.171 -0.153 0.243 z M73.3428 18 c-0.16799 0 -0.252 -0.084006 -0.252 -0.252 l0 -12.096 c0 -0.059994 0.027 -0.11099 0.081 -0.15298 s0.11101 -0.063 0.171 -0.063 l1.656 0 c0.059994 0 0.117 0.021006 0.171 0.063 s0.081 0.092988 0.081 0.15298 l0 10.188 l5.31 0 c0.16799 0 0.252 0.084006 0.252 0.252 l0 1.656 c0 0.16799 -0.084006 0.252 -0.252 0.252 l-7.218 0 z  M87.88499999999999 18 c-0.16799 0 -0.252 -0.084006 -0.252 -0.252 l0 -12.06 c0 -0.16799 0.084006 -0.252 0.252 -0.252 l6.534 0 c0.16799 0 0.252 0.084006 0.252 0.252 l0 1.656 c0 0.048006 -0.018 0.10201 -0.054 0.162 s-0.084006 0.09 -0.144 0.09 l-4.68 0 l0 3.042 l3.672 0 c0.16799 0 0.252 0.084006 0.252 0.252 l0 1.656 c0 0.16799 -0.084006 0.252 -0.252 0.252 l-3.672 0 l0 4.95 c0 0.16799 -0.084006 0.252 -0.252 0.252 l-1.656 0 z M102.9771 18 c-0.072 0 -0.13801 -0.027 -0.198 -0.081 s-0.10199 -0.11101 -0.12598 -0.171 l-1.782 -4.374 l-2.016 0 l0 4.374 c0 0.16799 -0.084006 0.252 -0.252 0.252 l-1.656 0 c-0.16799 0 -0.252 -0.084006 -0.252 -0.252 l0 -12.06 c0 -0.16799 0.084006 -0.252 0.252 -0.252 l5.724 0 c0.048006 0 0.096012 0.0059942 0.14402 0.018 s0.099 0.027 0.153 0.045 s0.11101 0.057006 0.171 0.117 l1.008 1.008 c0.095994 0.095994 0.15599 0.20399 0.17998 0.324 c0.012006 0.048006 0.018 0.096012 0.018 0.14402 l0 4.572 c0 0.216 -0.066006 0.39001 -0.198 0.522 l-1.062 1.062 l1.818 4.482 c0.023994 0.059994 0.020988 0.11999 -0.0090176 0.17998 s-0.099 0.09 -0.207 0.09 l-1.71 0 z M102.11309999999999 10.872 c0.036 -0.036 0.053982 -0.077994 0.053982 -0.126 l0 -2.718 c0 -0.036 -0.012006 -0.066006 -0.036 -0.09 l-0.306 -0.288 c-0.059994 -0.036 -0.10199 -0.054 -0.12598 -0.054 l-2.844 0 l0 3.618 l2.844 0 c0.048006 0 0.09 -0.018 0.126 -0.054 z M106.98119999999999 18 c-0.16799 0 -0.252 -0.084006 -0.252 -0.252 l0 -12.06 c0 -0.16799 0.084006 -0.252 0.252 -0.252 l6.534 0 c0.16799 0 0.252 0.084006 0.252 0.252 l0 1.656 c0 0.059994 -0.023994 0.117 -0.072 0.171 s-0.108 0.081 -0.18 0.081 l-4.626 0 l0 3.042 l3.654 0 c0.059994 0 0.117 0.023994 0.171 0.072 s0.081 0.108 0.081 0.18 l0 1.656 c0 0.072 -0.027 0.13199 -0.081 0.18 s-0.11101 0.072 -0.171 0.072 l-3.654 0 l0 3.042 l4.626 0 c0.16799 0 0.252 0.084006 0.252 0.252 l0 1.656 c0 0.16799 -0.084006 0.252 -0.252 0.252 l-6.534 0 z M122.45129999999999 17.82 c-0.072 0.072 -0.14999 0.12004 -0.234 0.14404 s-0.162 0.036 -0.234 0.036 l-4.644 0 c-0.13199 0 -0.225 -0.014994 -0.279 -0.045 s-0.117 -0.081 -0.189 -0.153 l-1.026 -1.008 c-0.084006 -0.084006 -0.135 -0.15901 -0.153 -0.22502 s-0.027 -0.12901 -0.027 -0.189 l0 -1.836 c0 -0.059994 0.023994 -0.117 0.072 -0.171 s0.108 -0.081 0.18 -0.081 l1.656 0 c0.072 0 0.13199 0.027 0.18 0.081 s0.072 0.11101 0.072 0.171 l0 1.296 l3.222 0 c0.023994 0 0.054 -0.018 0.09 -0.054 l0.306 -0.288 c0.036 -0.023994 0.054 -0.065988 0.054 -0.12598 l0 -2.106 c0 -0.048006 -0.018 -0.09 -0.054 -0.126 l-0.288 -0.288 c-0.036 -0.036 -0.077994 -0.054 -0.126 -0.054 l-3.744 0 c-0.036 0 -0.093006 -0.012006 -0.171 -0.036 s-0.15899 -0.077994 -0.243 -0.162 l-1.026 -1.008 c-0.072 -0.072 -0.12001 -0.14701 -0.144 -0.225 s-0.036 -0.153 -0.036 -0.225 l0 -4.05 c0 -0.059994 0.012006 -0.13199 0.036 -0.216 s0.077994 -0.16801 0.162 -0.25202 l1.008 -1.008 c0.059994 -0.059994 0.117 -0.10499 0.171 -0.135 s0.153 -0.045 0.297 -0.045 l4.644 0 c0.072 0 0.153 0.014994 0.243 0.045 s0.16501 0.075006 0.225 0.135 l1.008 1.008 c0.095994 0.108 0.153 0.19499 0.171 0.261 s0.027 0.135 0.027 0.207 l0 1.89 c0 0.16799 -0.084006 0.252 -0.252 0.252 l-1.656 0 c-0.16799 0 -0.252 -0.084006 -0.252 -0.252 l0 -1.386 l-3.168 0 c-0.048006 0 -0.096012 0.018 -0.14402 0.054 l-0.306 0.288 c-0.036 0.023994 -0.054 0.065988 -0.054 0.12598 l0 2.088 c0 0.048006 0.018 0.09 0.054 0.126 l0.306 0.306 c0.036 0.036 0.084006 0.054 0.144 0.054 l3.654 0 c0.19201 0 0.34801 0.059994 0.46802 0.18 l1.008 1.008 c0.13199 0.144 0.198 0.30001 0.198 0.468 l0 4.032 c0 0.18 -0.066006 0.33601 -0.198 0.468 z M132.14339999999999 18 c-0.16799 0 -0.252 -0.084006 -0.252 -0.252 l0 -4.95 l-3.672 0 l0 4.95 c0 0.16799 -0.084006 0.252 -0.252 0.252 l-1.656 0 c-0.16799 0 -0.252 -0.084006 -0.252 -0.252 l0 -12.06 c0 -0.16799 0.084006 -0.252 0.252 -0.252 l1.656 0 c0.16799 0 0.252 0.084006 0.252 0.252 l0 4.95 l3.672 0 l0 -4.95 c0 -0.16799 0.084006 -0.252 0.252 -0.252 l1.656 0 c0.16799 0 0.252 0.084006 0.252 0.252 l0 12.06 c0 0.16799 -0.084006 0.252 -0.252 0.252 l-1.656 0 z M142.23149999999998 18 c-0.072 0 -0.14099 -0.027 -0.207 -0.081 s-0.11101 -0.11101 -0.135 -0.171 l-3.15 -7.776 l0 7.776 c0 0.16799 -0.084006 0.252 -0.252 0.252 l-1.656 0 c-0.16799 0 -0.252 -0.084006 -0.252 -0.252 l0 -12.06 c0 -0.16799 0.084006 -0.252 0.252 -0.252 l2.196 0 c0.12001 0 0.21001 0.084006 0.27 0.252 l2.79 7.218 l0.108 0.504 l0 -7.722 c0 -0.16799 0.084006 -0.252 0.252 -0.252 l1.656 0 c0.16799 0 0.252 0.084006 0.252 0.252 l0 12.06 c0 0.16799 -0.084006 0.252 -0.252 0.252 l-1.872 0 z M147.13559999999998 18 c-0.16799 0 -0.252 -0.084006 -0.252 -0.252 l0 -12.06 c0 -0.16799 0.084006 -0.252 0.252 -0.252 l6.534 0 c0.16799 0 0.252 0.084006 0.252 0.252 l0 1.656 c0 0.059994 -0.023994 0.117 -0.072 0.171 s-0.108 0.081 -0.18 0.081 l-4.626 0 l0 3.042 l3.654 0 c0.059994 0 0.117 0.023994 0.171 0.072 s0.081 0.108 0.081 0.18 l0 1.656 c0 0.072 -0.027 0.13199 -0.081 0.18 s-0.11101 0.072 -0.171 0.072 l-3.654 0 l0 3.042 l4.626 0 c0.16799 0 0.252 0.084006 0.252 0.252 l0 1.656 c0 0.16799 -0.084006 0.252 -0.252 0.252 l-6.534 0 z M162.60569999999998 17.82 c-0.072 0.072 -0.14999 0.12004 -0.234 0.14404 s-0.162 0.036 -0.234 0.036 l-4.644 0 c-0.13199 0 -0.225 -0.014994 -0.279 -0.045 s-0.117 -0.081 -0.189 -0.153 l-1.026 -1.008 c-0.084006 -0.084006 -0.135 -0.15901 -0.153 -0.22502 s-0.027 -0.12901 -0.027 -0.189 l0 -1.836 c0 -0.059994 0.023994 -0.117 0.072 -0.171 s0.108 -0.081 0.18 -0.081 l1.656 0 c0.072 0 0.13199 0.027 0.18 0.081 s0.072 0.11101 0.072 0.171 l0 1.296 l3.222 0 c0.023994 0 0.054 -0.018 0.09 -0.054 l0.306 -0.288 c0.036 -0.023994 0.054 -0.065988 0.054 -0.12598 l0 -2.106 c0 -0.048006 -0.018 -0.09 -0.054 -0.126 l-0.288 -0.288 c-0.036 -0.036 -0.077994 -0.054 -0.126 -0.054 l-3.744 0 c-0.036 0 -0.093006 -0.012006 -0.171 -0.036 s-0.15899 -0.077994 -0.243 -0.162 l-1.026 -1.008 c-0.072 -0.072 -0.12001 -0.14701 -0.144 -0.225 s-0.036 -0.153 -0.036 -0.225 l0 -4.05 c0 -0.059994 0.012006 -0.13199 0.036 -0.216 s0.077994 -0.16801 0.162 -0.25202 l1.008 -1.008 c0.059994 -0.059994 0.117 -0.10499 0.171 -0.135 s0.153 -0.045 0.297 -0.045 l4.644 0 c0.072 0 0.153 0.014994 0.243 0.045 s0.16501 0.075006 0.225 0.135 l1.008 1.008 c0.095994 0.108 0.153 0.19499 0.171 0.261 s0.027 0.135 0.027 0.207 l0 1.89 c0 0.16799 -0.084006 0.252 -0.252 0.252 l-1.656 0 c-0.16799 0 -0.252 -0.084006 -0.252 -0.252 l0 -1.386 l-3.168 0 c-0.048006 0 -0.096012 0.018 -0.14402 0.054 l-0.306 0.288 c-0.036 0.023994 -0.054 0.065988 -0.054 0.12598 l0 2.088 c0 0.048006 0.018 0.09 0.054 0.126 l0.306 0.306 c0.036 0.036 0.084006 0.054 0.144 0.054 l3.654 0 c0.19201 0 0.34801 0.059994 0.46802 0.18 l1.008 1.008 c0.13199 0.144 0.198 0.30001 0.198 0.468 l0 4.032 c0 0.18 -0.066006 0.33601 -0.198 0.468 z M172.8738 17.82 c-0.072 0.072 -0.14999 0.12004 -0.234 0.14404 s-0.162 0.036 -0.234 0.036 l-4.644 0 c-0.13199 0 -0.225 -0.014994 -0.279 -0.045 s-0.117 -0.081 -0.189 -0.153 l-1.026 -1.008 c-0.084006 -0.084006 -0.135 -0.15901 -0.153 -0.22502 s-0.027 -0.12901 -0.027 -0.189 l0 -1.836 c0 -0.059994 0.023994 -0.117 0.072 -0.171 s0.108 -0.081 0.18 -0.081 l1.656 0 c0.072 0 0.13199 0.027 0.18 0.081 s0.072 0.11101 0.072 0.171 l0 1.296 l3.222 0 c0.023994 0 0.054 -0.018 0.09 -0.054 l0.306 -0.288 c0.036 -0.023994 0.054 -0.065988 0.054 -0.12598 l0 -2.106 c0 -0.048006 -0.018 -0.09 -0.054 -0.126 l-0.288 -0.288 c-0.036 -0.036 -0.077994 -0.054 -0.126 -0.054 l-3.744 0 c-0.036 0 -0.093006 -0.012006 -0.171 -0.036 s-0.15899 -0.077994 -0.243 -0.162 l-1.026 -1.008 c-0.072 -0.072 -0.12001 -0.14701 -0.144 -0.225 s-0.036 -0.153 -0.036 -0.225 l0 -4.05 c0 -0.059994 0.012006 -0.13199 0.036 -0.216 s0.077994 -0.16801 0.162 -0.25202 l1.008 -1.008 c0.059994 -0.059994 0.117 -0.10499 0.171 -0.135 s0.153 -0.045 0.297 -0.045 l4.644 0 c0.072 0 0.153 0.014994 0.243 0.045 s0.16501 0.075006 0.225 0.135 l1.008 1.008 c0.095994 0.108 0.153 0.19499 0.171 0.261 s0.027 0.135 0.027 0.207 l0 1.89 c0 0.16799 -0.084006 0.252 -0.252 0.252 l-1.656 0 c-0.16799 0 -0.252 -0.084006 -0.252 -0.252 l0 -1.386 l-3.168 0 c-0.048006 0 -0.096012 0.018 -0.14402 0.054 l-0.306 0.288 c-0.036 0.023994 -0.054 0.065988 -0.054 0.12598 l0 2.088 c0 0.048006 0.018 0.09 0.054 0.126 l0.306 0.306 c0.036 0.036 0.084006 0.054 0.144 0.054 l3.654 0 c0.19201 0 0.34801 0.059994 0.46802 0.18 l1.008 1.008 c0.13199 0.144 0.198 0.30001 0.198 0.468 l0 4.032 c0 0.18 -0.066006 0.33601 -0.198 0.468 z" style="fill: #f07631;"/></g><g id="SvgjsG4465" fill="#f07631" rel="mainfill" name="symbol" xmlns:name="symbol_mainfill" transform="translate(114.57444606578716,44.440143076717504) scale(1.4640198788327177)"><g xmlns="http://www.w3.org/2000/svg"><circle cx="34.7" cy="62.9" r="21.5"/><path d="M93,53.7c0,0,0-0.1,0-0.1c3.4-14,1.4-30.8-3.4-38c-1.9-2.9-4-3.6-5.3-3.6c-3.2-0.1-4.3,3-5.4,6.2   c-1.6,4.4-3.8,10.5-11.7,13.3C55.6,35.5,41,34,39.8,33.9c0,0,0,0,0,0c-0.1,0-0.1,0-0.1,0c-0.1,0-0.2,0-0.2,0   c-1.6-0.3-3.2-0.4-4.8-0.4c-14.3,0-26.5,10.2-29,24.4c-2.8,16,7.9,31.3,23.9,34.1c1.7,0.3,3.4,0.5,5.1,0.5c1.8,0,3.5-0.2,5.2-0.5   c0,0,0,0,0,0c7.7-0.6,14.7-2.1,20.9-4.3c0.1,0,0.1,0,0.2-0.1c4.4-1.6,8.4-3.6,12-6c0.2-0.1,0.3-0.2,0.5-0.3   c4.4-2.9,8.2-6.4,11.3-10.5c0.1-0.1,0.1-0.1,0.1-0.2c2.4-3.2,4.4-6.6,5.9-10.4C91.8,58,92.5,55.9,93,53.7z M30.3,88   C16.4,85.6,7.1,72.3,9.6,58.5c2.1-12.2,12.7-21.1,25.1-21.1c1.5,0,3,0.1,4.4,0.4c0,0,0.1,0,0.1,0c0,0,0.1,0,0.1,0   C46,39,51.7,42.7,55.6,48.2c3.9,5.6,5.4,12.4,4.2,19.1C58,77.9,49.8,86,39.6,87.9c0,0-0.1,0-0.1,0c-0.1,0-0.3,0-0.4,0.1   c-1.4,0.3-2.9,0.4-4.3,0.4C33.3,88.4,31.8,88.3,30.3,88z M87,59.4c0-1.3,0-2.6,0-4c-0.6-9.8-6-16.3-6.3-16.6   c-0.7-0.8-1.9-0.9-2.8-0.2c-0.8,0.7-0.9,1.9-0.2,2.8c0,0.1,4.8,5.9,5.4,14.3c0.4,6-1,11.3-1.4,12.8c-1.2,1.5-2.5,3-3.9,4.4   c0.8-2.5,1.6-5.5,2-9.1c1.2-10.9-5.1-21.2-5.3-21.6c-0.6-0.9-1.8-1.2-2.7-0.6c-0.9,0.6-1.2,1.8-0.6,2.7c0.1,0.1,5.8,9.6,4.8,19.1   c-0.9,8.3-4,13.6-4.9,14.9c-1.4,0.9-2.9,1.8-4.5,2.7c1.8-3.1,3.7-7.2,4.9-12.3c3.1-14.3-5.6-24.5-5.9-24.9   c-0.7-0.8-1.9-0.9-2.8-0.2c-0.8,0.7-0.9,1.9-0.2,2.8c0.1,0.1,7.7,9.1,5.1,21.5c-2,9.2-6.9,14.9-8.2,16.2c-2,0.7-4,1.3-6.1,1.8   c5.4-4.3,9.2-10.5,10.4-17.8c2.1-12-3.4-23.6-13-29.8c5.4-0.2,11.9-0.9,17.8-3c9.7-3.4,12.3-10.8,14.1-15.7   c0.5-1.3,1.2-3.4,1.7-3.6c0.6,0,1.4,0.7,2.1,1.9c1.5,2.2,2.7,6,3.5,10.5c-1.4-1.7-2.6-2.6-2.7-2.6c-0.9-0.6-2.1-0.4-2.7,0.5   c-0.6,0.9-0.4,2.1,0.5,2.7c0,0,2,1.5,3.8,4.6c1.8,3.1,2.1,4.9,2.1,4.9c0,0,0,0,0,0c0,1.4,0,2.7-0.1,4.1c-2.1-5.2-5.4-8.8-5.6-8.9   c-0.7-0.8-2-0.8-2.8-0.1c-0.8,0.7-0.8,2-0.1,2.8c0,0,3.3,3.4,5,8.3c1.5,4,1.8,7.5,1.9,8.4c-0.5,2-1.1,3.9-1.9,5.7   C87.3,58.9,87.1,59.1,87,59.4z" fill="#f07631" style="fill: #f07631;"/></g></g><defs id="SvgjsDefs4462"/><g id="SvgjsG4466" fill="#f07631" transform="translate(1.0615158132979554,0.1096838182916624) scale(1.6876244826990148)" rel="mainfill" name="outline_container" xmlns:name="outlineContainer_mainfill"><defs/><g>  <path d="M21.82,147.281c5.272,1.563,9.308,1.626,14.18-1.005c-4.889-8.717-16.669-12.208-25.518-7.563    C13.135,143.57,16.549,145.718,21.82,147.281z" fill="#f07631" style="fill: #f07631;"/>  <path d="M23.738,135.282c-1.784-9.836-11.786-16.971-21.667-15.461c0.93,5.459,3.46,8.601,7.936,11.794    C14.484,134.809,18.274,136.178,23.738,135.282z" fill="#f07631" style="fill: #f07631;"/>  <path d="M3.935,112.956c3.193,4.477,6.334,7.007,11.79,7.939c1.515-9.882-5.618-19.884-15.454-21.674    C-0.629,104.685,0.744,108.479,3.935,112.956z" fill="#f07631" style="fill: #f07631;"/>  <path d="M12.835,104.681c4.647-8.847,1.16-20.631-7.558-25.522c-2.628,4.875-2.57,8.905-1.008,14.179    C5.831,98.609,7.976,102.025,12.835,104.681z" fill="#f07631" style="fill: #f07631;"/>  <path d="M193.961,138.195c0.288-0.573,0.577-1.147,0.863-1.716c0.231-0.469,0.476-0.93,0.693-1.402l0.63-1.423    c0.412-0.949,0.849-1.881,1.233-2.829c0.724-1.913,1.507-3.781,2.095-5.691c1.316-3.774,2.224-7.569,3.026-11.259    c1.459-7.417,1.967-14.535,1.801-21.047c-0.162-6.517-0.996-12.424-2.111-17.543c-1.133-5.116-2.446-9.482-3.79-12.962    c-0.614-1.763-1.283-3.284-1.849-4.612c-0.286-0.662-0.536-1.281-0.791-1.836c-0.266-0.55-0.507-1.048-0.724-1.494    c-0.433-0.892-0.763-1.575-0.986-2.034c-0.221-0.46-0.343-0.693-0.343-0.693s-0.504-0.922-1.455-2.661    c-0.238-0.435-0.505-0.92-0.798-1.455c-0.319-0.52-0.667-1.089-1.043-1.704c-0.378-0.615-0.783-1.276-1.216-1.982    c-0.427-0.71-0.953-1.419-1.47-2.194c-0.53-0.766-1.071-1.587-1.673-2.425c-0.624-0.822-1.277-1.683-1.96-2.582    c-0.664-0.913-1.431-1.805-2.217-2.74c-0.792-0.929-1.579-1.924-2.49-2.866c-3.508-3.888-7.821-8.012-13.025-11.939    c-5.198-3.927-11.286-7.653-18.167-10.775c-0.85-0.413-1.729-0.777-2.619-1.132c-0.888-0.362-1.782-0.726-2.683-1.093    c-0.916-0.324-1.839-0.65-2.769-0.979l-1.399-0.493l-1.428-0.434c-0.956-0.287-1.918-0.576-2.886-0.866    c-0.98-0.246-1.966-0.493-2.958-0.741l-1.493-0.369l-1.517-0.303c-1.015-0.197-2.032-0.416-3.06-0.597    c-4.125-0.677-8.372-1.138-12.708-1.292c-4.335-0.097-8.751,0.008-13.19,0.518c-4.431,0.534-8.899,1.302-13.307,2.496    C81.779,4.258,77.4,5.722,73.163,7.598c-4.221,1.898-8.376,4.029-12.302,6.556c-1.011,0.585-1.939,1.298-2.914,1.942    c-0.965,0.658-1.935,1.31-2.85,2.039l-2.781,2.137l-2.674,2.27c-3.493,3.106-6.822,6.407-9.79,9.998    c-2.963,3.589-5.697,7.349-8.076,11.292c-2.356,3.955-4.439,8.032-6.192,12.201c-1.707,4.187-3.137,8.432-4.248,12.7    c-1.05,4.281-1.875,8.556-2.342,12.8c-0.431,4.243-0.702,8.436-0.565,12.535c0.007,0.512,0.015,1.023,0.022,1.533    c0.029,0.508,0.059,1.015,0.088,1.521c0.062,1.011,0.125,2.016,0.188,3.015c0.108,0.995,0.215,1.984,0.322,2.966    c0.101,0.983,0.214,1.958,0.384,2.919c0.154,0.963,0.306,1.919,0.458,2.868c0.162,0.948,0.382,1.877,0.568,2.806    c0.208,0.924,0.356,1.854,0.612,2.752c0.183,0.702,0.364,1.398,0.544,2.089c0.169,0.633,0.319,1.249,0.489,1.834    c0.183,0.581,0.358,1.139,0.525,1.671c0.34,1.062,0.626,2.03,0.917,2.859c0.306,0.824,0.567,1.526,0.776,2.088    c1.533,4.156,3.273,7.194,5.131,9.904c0.953,1.344,1.994,2.578,3.062,3.834c1.115,1.228,2.344,2.429,3.651,3.72    c-0.568-1.743-1.091-3.347-1.598-4.901c-0.453-1.562-0.956-3.021-1.458-4.516c-0.956-3.013-2.141-6.057-3.542-9.982    c-0.193-0.53-0.434-1.193-0.717-1.97c-0.269-0.782-0.532-1.693-0.85-2.694c-0.157-0.501-0.321-1.026-0.492-1.573    c-0.158-0.551-0.297-1.131-0.455-1.727c-0.169-0.65-0.34-1.305-0.512-1.965c-0.243-0.844-0.379-1.72-0.575-2.589    c-0.174-0.874-0.384-1.748-0.535-2.639c-0.142-0.893-0.285-1.792-0.429-2.698c-0.161-0.903-0.267-1.82-0.36-2.745    c-0.101-0.924-0.202-1.854-0.304-2.789c-0.058-0.939-0.116-1.884-0.174-2.835c-0.028-0.475-0.056-0.952-0.084-1.43    c-0.007-0.479-0.013-0.96-0.02-1.441c-0.132-3.855,0.128-7.797,0.531-11.787c0.439-3.991,1.217-8.009,2.202-12.033    c1.044-4.011,2.39-7.999,3.99-11.931c1.647-3.914,3.604-7.741,5.812-11.452c2.232-3.7,4.798-7.225,7.575-10.592    c2.781-3.369,5.905-6.461,9.179-9.376l2.508-2.13l2.61-2.004c0.858-0.685,1.769-1.296,2.675-1.914    c0.915-0.604,1.784-1.276,2.734-1.824c3.686-2.375,7.585-4.37,11.543-6.154c3.973-1.76,8.08-3.13,12.203-4.27    c4.133-1.121,8.325-1.839,12.483-2.343c4.165-0.48,8.312-0.577,12.383-0.489c4.073,0.145,8.063,0.578,11.941,1.212    c0.967,0.17,1.923,0.377,2.877,0.562l1.426,0.283l1.404,0.348c0.933,0.233,1.86,0.465,2.782,0.695    c0.91,0.273,1.815,0.545,2.714,0.815l1.344,0.406l1.315,0.465c0.874,0.308,1.743,0.614,2.605,0.918    c0.847,0.345,1.688,0.688,2.523,1.029c0.838,0.333,1.665,0.675,2.464,1.064c6.473,2.936,12.201,6.438,17.093,10.131    c4.898,3.692,8.957,7.572,12.26,11.233c0.86,0.885,1.599,1.823,2.345,2.698c0.741,0.879,1.465,1.718,2.089,2.58    c0.643,0.846,1.259,1.657,1.848,2.431c0.568,0.789,1.077,1.564,1.578,2.286c0.487,0.73,0.985,1.397,1.387,2.067    c0.408,0.666,0.791,1.289,1.146,1.868c0.356,0.579,0.685,1.115,0.986,1.605c0.276,0.504,0.527,0.962,0.751,1.372    c0.897,1.638,1.373,2.506,1.373,2.506s0.115,0.219,0.322,0.653c0.209,0.433,0.52,1.076,0.927,1.916    c0.204,0.42,0.432,0.89,0.682,1.407c0.24,0.522,0.474,1.106,0.743,1.729c0.532,1.25,1.164,2.682,1.739,4.342    c1.267,3.275,2.497,7.385,3.562,12.198c1.048,4.816,1.831,10.374,1.981,16.504c0.154,6.126-0.327,12.822-1.698,19.795    c-0.759,3.468-1.607,7.037-2.849,10.582c-0.55,1.796-1.291,3.548-1.969,5.346c-0.36,0.891-0.773,1.765-1.16,2.656l-0.591,1.336    c-0.204,0.443-0.435,0.875-0.652,1.316c-0.441,0.877-0.884,1.758-1.329,2.644c-0.488,0.863-0.979,1.73-1.471,2.601    c-0.474,0.882-1.019,1.727-1.561,2.579c-0.552,0.845-1.054,1.729-1.651,2.553c-2.276,3.379-4.882,6.602-7.675,9.722    c-2.847,3.074-5.95,5.975-9.256,8.696c-3.364,2.648-6.901,5.143-10.655,7.339c-3.772,2.153-7.683,4.121-11.763,5.717    c-4.085,1.575-8.28,2.894-12.56,3.864c-4.287,0.931-8.634,1.558-12.991,1.878c-4.361,0.276-8.721,0.214-13.029-0.121    c-4.311-0.342-8.55-1.076-12.691-2.012c-4.146-0.933-8.146-2.264-12.019-3.731c-3.873-1.482-7.542-3.302-11.069-5.213    c-1.725-1.025-3.469-1.985-5.094-3.099c-0.816-0.55-1.662-1.048-2.443-1.631c-0.671-0.486-1.338-0.969-2.002-1.45    c-1.134-0.782-2.128-1.646-3.1-2.405c-0.479-0.388-0.952-0.751-1.39-1.12c-0.43-0.379-0.842-0.744-1.235-1.091    c-0.783-0.699-1.508-1.311-2.111-1.876c-0.594-0.575-1.1-1.066-1.505-1.459c-3.011-2.882-5.306-5.207-7.666-7.31    c-1.159-1.069-2.286-2.124-3.526-3.175c-1.212-1.097-2.462-2.229-3.821-3.46c0.645,1.72,1.239,3.333,1.905,4.852    c0.71,1.487,1.412,2.941,2.249,4.36c1.715,2.803,3.778,5.632,6.946,8.729c0.428,0.42,0.962,0.945,1.589,1.561    c0.638,0.604,1.404,1.259,2.235,2.004c0.417,0.37,0.855,0.758,1.311,1.162c0.465,0.394,0.966,0.782,1.475,1.195    c1.03,0.809,2.089,1.725,3.292,2.561c0.705,0.511,1.415,1.025,2.128,1.541c0.832,0.619,1.729,1.151,2.597,1.735    c1.729,1.182,3.582,2.207,5.417,3.294c3.749,2.036,7.651,3.967,11.77,5.544c4.118,1.563,8.373,2.974,12.783,3.968    c4.405,0.997,8.917,1.775,13.505,2.14c4.586,0.357,9.23,0.423,13.876,0.127c4.642-0.339,9.276-1.008,13.847-2.003    c4.563-1.034,9.039-2.439,13.393-4.122c4.351-1.703,8.521-3.799,12.539-6.097c3.998-2.339,7.766-4.995,11.348-7.82    c3.525-2.899,6.833-5.994,9.868-9.274c2.913-3.251,5.625-6.613,8.011-10.127c3.417,0.999,6.662,0.67,10.595-0.496    c5.271-1.563,8.686-3.71,11.339-8.568C205.122,136.055,199.104,136.07,193.961,138.195z" fill="#f07631" style="fill: #f07631;"/>  <path d="M196.928,135.282c5.464,0.896,9.255-0.473,13.732-3.666c4.475-3.193,7.005-6.335,7.936-11.794    C208.714,118.311,198.712,125.446,196.928,135.282z" fill="#f07631" style="fill: #f07631;"/>  <path d="M204.942,120.895c5.456-0.932,8.598-3.462,11.791-7.939c3.19-4.477,4.563-8.272,3.663-13.735    C210.56,101.011,203.427,111.013,204.942,120.895z" fill="#f07631" style="fill: #f07631;"/>  <path d="M216.398,93.338c1.562-5.274,1.62-9.305-1.008-14.179c-8.718,4.892-12.205,16.675-7.558,25.522    C212.69,102.025,214.836,98.609,216.398,93.338z" fill="#f07631" style="fill: #f07631;"/></g></g>
                </g>
            </svg>
        